<mxfile host="app.diagrams.net" modified="2023-12-11T21:06:56.594Z" agent="Mozilla/5.0 (X11; Linux x86_64) AppleWebKit/537.36 (KHTML, like Gecko) Chrome/118.0.0.0 Safari/537.36" etag="JcY3yeJHrooYu7RYzxla" version="22.1.7" type="device">
  <diagram name="Page-1" id="jQI2MYiASjS-IjYtUZ7q">
    <mxGraphModel dx="3385" dy="1116" grid="1" gridSize="10" guides="1" tooltips="1" connect="1" arrows="1" fold="1" page="1" pageScale="1" pageWidth="1169" pageHeight="1654" math="0" shadow="0">
      <root>
        <mxCell id="0" />
        <mxCell id="1" parent="0" />
        <mxCell id="g78Ildckkz_o34DPdJ10-10" value="+,-" style="edgeStyle=orthogonalEdgeStyle;rounded=0;orthogonalLoop=1;jettySize=auto;html=1;exitX=1;exitY=0.5;exitDx=0;exitDy=0;entryX=0;entryY=0.5;entryDx=0;entryDy=0;fontSize=16;labelPosition=center;verticalLabelPosition=top;align=center;verticalAlign=bottom;" parent="1" source="VPKis5m0lJXNzGzPn87w-1" target="g78Ildckkz_o34DPdJ10-1" edge="1">
          <mxGeometry relative="1" as="geometry" />
        </mxCell>
        <mxCell id="g78Ildckkz_o34DPdJ10-167" value="1..9" style="edgeStyle=orthogonalEdgeStyle;orthogonalLoop=1;jettySize=auto;html=1;exitX=1;exitY=0;exitDx=0;exitDy=0;entryX=0;entryY=0;entryDx=0;entryDy=0;fontSize=16;labelPosition=center;verticalLabelPosition=top;align=center;verticalAlign=bottom;curved=1;" parent="1" source="VPKis5m0lJXNzGzPn87w-1" target="g78Ildckkz_o34DPdJ10-2" edge="1">
          <mxGeometry relative="1" as="geometry">
            <Array as="points">
              <mxPoint x="188" y="360" />
              <mxPoint x="452" y="360" />
            </Array>
          </mxGeometry>
        </mxCell>
        <mxCell id="qLQD58aYFqTrPK2d6mqf-1" value="." style="edgeStyle=orthogonalEdgeStyle;orthogonalLoop=1;jettySize=auto;html=1;exitX=0.5;exitY=0;exitDx=0;exitDy=0;entryX=0.5;entryY=0;entryDx=0;entryDy=0;fontSize=16;labelPosition=center;verticalLabelPosition=top;align=center;verticalAlign=bottom;curved=1;" parent="1" source="VPKis5m0lJXNzGzPn87w-1" target="g78Ildckkz_o34DPdJ10-21" edge="1">
          <mxGeometry relative="1" as="geometry">
            <Array as="points">
              <mxPoint x="160" y="270" />
              <mxPoint x="640" y="270" />
            </Array>
          </mxGeometry>
        </mxCell>
        <mxCell id="VPKis5m0lJXNzGzPn87w-1" value="q0" style="ellipse;whiteSpace=wrap;html=1;fontFamily=Lucida Console;fontSize=16;fillColor=none;" parent="1" vertex="1">
          <mxGeometry x="120" y="400" width="80" height="80" as="geometry" />
        </mxCell>
        <mxCell id="g78Ildckkz_o34DPdJ10-11" value="1..9" style="edgeStyle=orthogonalEdgeStyle;rounded=0;orthogonalLoop=1;jettySize=auto;html=1;exitX=1;exitY=0.5;exitDx=0;exitDy=0;entryX=0;entryY=0.5;entryDx=0;entryDy=0;fontSize=16;labelPosition=center;verticalLabelPosition=top;align=center;verticalAlign=bottom;" parent="1" source="g78Ildckkz_o34DPdJ10-1" target="g78Ildckkz_o34DPdJ10-2" edge="1">
          <mxGeometry relative="1" as="geometry" />
        </mxCell>
        <mxCell id="g78Ildckkz_o34DPdJ10-135" value="." style="edgeStyle=orthogonalEdgeStyle;orthogonalLoop=1;jettySize=auto;html=1;exitX=1;exitY=1;exitDx=0;exitDy=0;entryX=0;entryY=1;entryDx=0;entryDy=0;fontSize=16;labelPosition=center;verticalLabelPosition=top;align=center;verticalAlign=bottom;curved=1;" parent="1" source="g78Ildckkz_o34DPdJ10-1" target="g78Ildckkz_o34DPdJ10-21" edge="1">
          <mxGeometry relative="1" as="geometry">
            <Array as="points">
              <mxPoint x="348" y="570" />
              <mxPoint x="612" y="570" />
            </Array>
          </mxGeometry>
        </mxCell>
        <mxCell id="g78Ildckkz_o34DPdJ10-1" value="q1" style="ellipse;whiteSpace=wrap;html=1;fontFamily=Lucida Console;fontSize=16;fillColor=none;" parent="1" vertex="1">
          <mxGeometry x="280" y="400" width="80" height="80" as="geometry" />
        </mxCell>
        <mxCell id="g78Ildckkz_o34DPdJ10-143" value="" style="edgeStyle=orthogonalEdgeStyle;orthogonalLoop=1;jettySize=auto;html=1;exitX=0;exitY=1;exitDx=0;exitDy=0;curved=1;entryX=0.5;entryY=1;entryDx=0;entryDy=0;fontSize=16;labelPosition=right;verticalLabelPosition=middle;align=left;verticalAlign=middle;" parent="1" source="g78Ildckkz_o34DPdJ10-2" target="g78Ildckkz_o34DPdJ10-2" edge="1">
          <mxGeometry relative="1" as="geometry">
            <mxPoint x="420" y="540" as="targetPoint" />
            <Array as="points">
              <mxPoint x="420" y="468" />
              <mxPoint x="420" y="530" />
              <mxPoint x="480" y="530" />
            </Array>
          </mxGeometry>
        </mxCell>
        <mxCell id="g78Ildckkz_o34DPdJ10-168" value="e" style="edgeStyle=orthogonalEdgeStyle;orthogonalLoop=1;jettySize=auto;html=1;exitX=1;exitY=0;exitDx=0;exitDy=0;entryX=0;entryY=0;entryDx=0;entryDy=0;curved=1;fontSize=16;labelPosition=center;verticalLabelPosition=top;align=center;verticalAlign=bottom;" parent="1" source="g78Ildckkz_o34DPdJ10-2" target="g78Ildckkz_o34DPdJ10-114" edge="1">
          <mxGeometry relative="1" as="geometry">
            <Array as="points">
              <mxPoint x="508" y="360" />
              <mxPoint x="932" y="360" />
            </Array>
          </mxGeometry>
        </mxCell>
        <mxCell id="g78Ildckkz_o34DPdJ10-2" value="q2" style="ellipse;whiteSpace=wrap;html=1;fontFamily=Lucida Console;fontSize=16;fillColor=none;" parent="1" vertex="1">
          <mxGeometry x="440" y="400" width="80" height="80" as="geometry" />
        </mxCell>
        <mxCell id="g78Ildckkz_o34DPdJ10-6" value="" style="endArrow=classic;html=1;rounded=0;entryX=0;entryY=0.5;entryDx=0;entryDy=0;fontFamily=Lucida Console;fontSize=16;" parent="1" target="VPKis5m0lJXNzGzPn87w-1" edge="1">
          <mxGeometry width="50" height="50" relative="1" as="geometry">
            <mxPoint x="40" y="440" as="sourcePoint" />
            <mxPoint x="780" y="540" as="targetPoint" />
          </mxGeometry>
        </mxCell>
        <mxCell id="g78Ildckkz_o34DPdJ10-13" value="" style="ellipse;whiteSpace=wrap;html=1;fillColor=none;" parent="1" vertex="1">
          <mxGeometry x="450" y="410" width="60" height="60" as="geometry" />
        </mxCell>
        <mxCell id="g78Ildckkz_o34DPdJ10-22" value="." style="edgeStyle=orthogonalEdgeStyle;rounded=0;orthogonalLoop=1;jettySize=auto;html=1;exitX=1;exitY=0.5;exitDx=0;exitDy=0;entryX=0;entryY=0.5;entryDx=0;entryDy=0;fontSize=16;labelPosition=center;verticalLabelPosition=top;align=center;verticalAlign=bottom;" parent="1" source="g78Ildckkz_o34DPdJ10-2" target="g78Ildckkz_o34DPdJ10-21" edge="1">
          <mxGeometry relative="1" as="geometry">
            <mxPoint x="680" y="440" as="sourcePoint" />
          </mxGeometry>
        </mxCell>
        <mxCell id="g78Ildckkz_o34DPdJ10-25" value="0..9" style="edgeStyle=orthogonalEdgeStyle;rounded=0;orthogonalLoop=1;jettySize=auto;html=1;exitX=1;exitY=0.5;exitDx=0;exitDy=0;entryX=0;entryY=0.5;entryDx=0;entryDy=0;fontSize=16;labelPosition=center;verticalLabelPosition=top;align=center;verticalAlign=bottom;" parent="1" source="g78Ildckkz_o34DPdJ10-21" target="g78Ildckkz_o34DPdJ10-23" edge="1">
          <mxGeometry relative="1" as="geometry" />
        </mxCell>
        <mxCell id="g78Ildckkz_o34DPdJ10-21" value="q3" style="ellipse;whiteSpace=wrap;html=1;fontFamily=Lucida Console;fontSize=16;fillColor=none;" parent="1" vertex="1">
          <mxGeometry x="600" y="400" width="80" height="80" as="geometry" />
        </mxCell>
        <mxCell id="g78Ildckkz_o34DPdJ10-23" value="q4" style="ellipse;whiteSpace=wrap;html=1;fontFamily=Lucida Console;fontSize=16;fillColor=none;" parent="1" vertex="1">
          <mxGeometry x="760" y="400" width="80" height="80" as="geometry" />
        </mxCell>
        <mxCell id="g78Ildckkz_o34DPdJ10-24" value="" style="ellipse;whiteSpace=wrap;html=1;fillColor=none;" parent="1" vertex="1">
          <mxGeometry x="770" y="410" width="60" height="60" as="geometry" />
        </mxCell>
        <mxCell id="g78Ildckkz_o34DPdJ10-112" value="+,-" style="edgeStyle=orthogonalEdgeStyle;rounded=0;orthogonalLoop=1;jettySize=auto;html=1;exitX=1;exitY=0.5;exitDx=0;exitDy=0;entryX=0;entryY=0.5;entryDx=0;entryDy=0;fontSize=16;labelPosition=center;verticalLabelPosition=top;align=center;verticalAlign=bottom;" parent="1" source="g78Ildckkz_o34DPdJ10-114" target="g78Ildckkz_o34DPdJ10-117" edge="1">
          <mxGeometry relative="1" as="geometry" />
        </mxCell>
        <mxCell id="g78Ildckkz_o34DPdJ10-166" value="1..9" style="edgeStyle=orthogonalEdgeStyle;orthogonalLoop=1;jettySize=auto;html=1;exitX=1;exitY=0;exitDx=0;exitDy=0;entryX=0;entryY=0;entryDx=0;entryDy=0;fontSize=16;labelPosition=center;verticalLabelPosition=top;align=center;verticalAlign=bottom;curved=1;" parent="1" source="g78Ildckkz_o34DPdJ10-114" target="g78Ildckkz_o34DPdJ10-118" edge="1">
          <mxGeometry relative="1" as="geometry">
            <Array as="points">
              <mxPoint x="988" y="360" />
              <mxPoint x="1252" y="360" />
            </Array>
          </mxGeometry>
        </mxCell>
        <mxCell id="qLQD58aYFqTrPK2d6mqf-2" value="." style="edgeStyle=orthogonalEdgeStyle;orthogonalLoop=1;jettySize=auto;html=1;exitX=0.5;exitY=0;exitDx=0;exitDy=0;entryX=0.5;entryY=0;entryDx=0;entryDy=0;fontSize=16;labelPosition=center;verticalLabelPosition=top;align=center;verticalAlign=bottom;curved=1;" parent="1" source="g78Ildckkz_o34DPdJ10-114" target="g78Ildckkz_o34DPdJ10-125" edge="1">
          <mxGeometry relative="1" as="geometry">
            <Array as="points">
              <mxPoint x="960" y="270" />
              <mxPoint x="1440" y="270" />
            </Array>
          </mxGeometry>
        </mxCell>
        <mxCell id="g78Ildckkz_o34DPdJ10-114" value="q5" style="ellipse;whiteSpace=wrap;html=1;fontFamily=Lucida Console;fontSize=16;fillColor=none;" parent="1" vertex="1">
          <mxGeometry x="920" y="400" width="80" height="80" as="geometry" />
        </mxCell>
        <mxCell id="g78Ildckkz_o34DPdJ10-115" value="1..9" style="edgeStyle=orthogonalEdgeStyle;rounded=0;orthogonalLoop=1;jettySize=auto;html=1;exitX=1;exitY=0.5;exitDx=0;exitDy=0;entryX=0;entryY=0.5;entryDx=0;entryDy=0;fontSize=16;labelPosition=center;verticalLabelPosition=top;align=center;verticalAlign=bottom;" parent="1" source="g78Ildckkz_o34DPdJ10-117" target="g78Ildckkz_o34DPdJ10-118" edge="1">
          <mxGeometry relative="1" as="geometry" />
        </mxCell>
        <mxCell id="g78Ildckkz_o34DPdJ10-136" value="." style="edgeStyle=orthogonalEdgeStyle;orthogonalLoop=1;jettySize=auto;html=1;exitX=1;exitY=1;exitDx=0;exitDy=0;entryX=0;entryY=1;entryDx=0;entryDy=0;fontSize=16;labelPosition=center;verticalLabelPosition=top;align=center;verticalAlign=bottom;curved=1;" parent="1" source="g78Ildckkz_o34DPdJ10-117" target="g78Ildckkz_o34DPdJ10-125" edge="1">
          <mxGeometry relative="1" as="geometry">
            <Array as="points">
              <mxPoint x="1148" y="570" />
              <mxPoint x="1412" y="570" />
            </Array>
          </mxGeometry>
        </mxCell>
        <mxCell id="g78Ildckkz_o34DPdJ10-117" value="q6" style="ellipse;whiteSpace=wrap;html=1;fontFamily=Lucida Console;fontSize=16;fillColor=none;" parent="1" vertex="1">
          <mxGeometry x="1080" y="400" width="80" height="80" as="geometry" />
        </mxCell>
        <mxCell id="g78Ildckkz_o34DPdJ10-147" value="" style="edgeStyle=orthogonalEdgeStyle;orthogonalLoop=1;jettySize=auto;html=1;exitX=1;exitY=1;exitDx=0;exitDy=0;curved=1;entryX=0.5;entryY=1;entryDx=0;entryDy=0;fontSize=16;labelPosition=left;verticalLabelPosition=middle;align=right;verticalAlign=middle;" parent="1" source="g78Ildckkz_o34DPdJ10-118" target="g78Ildckkz_o34DPdJ10-118" edge="1">
          <mxGeometry relative="1" as="geometry">
            <mxPoint x="1280" y="540" as="targetPoint" />
            <Array as="points">
              <mxPoint x="1340" y="468" />
              <mxPoint x="1340" y="530" />
              <mxPoint x="1280" y="530" />
            </Array>
          </mxGeometry>
        </mxCell>
        <mxCell id="g78Ildckkz_o34DPdJ10-118" value="q7" style="ellipse;whiteSpace=wrap;html=1;fontFamily=Lucida Console;fontSize=16;fillColor=none;" parent="1" vertex="1">
          <mxGeometry x="1240" y="400" width="80" height="80" as="geometry" />
        </mxCell>
        <mxCell id="g78Ildckkz_o34DPdJ10-119" value="e" style="endArrow=classic;html=1;rounded=0;entryX=0;entryY=0.5;entryDx=0;entryDy=0;fontFamily=Lucida Console;fontSize=16;labelPosition=center;verticalLabelPosition=top;align=center;verticalAlign=bottom;" parent="1" target="g78Ildckkz_o34DPdJ10-114" edge="1">
          <mxGeometry width="50" height="50" relative="1" as="geometry">
            <mxPoint x="840" y="440" as="sourcePoint" />
            <mxPoint x="1580" y="540" as="targetPoint" />
          </mxGeometry>
        </mxCell>
        <mxCell id="g78Ildckkz_o34DPdJ10-120" value="" style="ellipse;whiteSpace=wrap;html=1;fillColor=none;" parent="1" vertex="1">
          <mxGeometry x="1250" y="410" width="60" height="60" as="geometry" />
        </mxCell>
        <mxCell id="g78Ildckkz_o34DPdJ10-121" value="." style="edgeStyle=orthogonalEdgeStyle;rounded=0;orthogonalLoop=1;jettySize=auto;html=1;exitX=1;exitY=0.5;exitDx=0;exitDy=0;entryX=0;entryY=0.5;entryDx=0;entryDy=0;fontSize=16;labelPosition=center;verticalLabelPosition=top;align=center;verticalAlign=bottom;" parent="1" source="g78Ildckkz_o34DPdJ10-118" target="g78Ildckkz_o34DPdJ10-125" edge="1">
          <mxGeometry relative="1" as="geometry">
            <mxPoint x="1480" y="440" as="sourcePoint" />
          </mxGeometry>
        </mxCell>
        <mxCell id="g78Ildckkz_o34DPdJ10-124" value="0..9" style="edgeStyle=orthogonalEdgeStyle;rounded=0;orthogonalLoop=1;jettySize=auto;html=1;exitX=1;exitY=0.5;exitDx=0;exitDy=0;entryX=0;entryY=0.5;entryDx=0;entryDy=0;fontSize=16;labelPosition=center;verticalLabelPosition=top;align=center;verticalAlign=bottom;" parent="1" source="g78Ildckkz_o34DPdJ10-125" target="g78Ildckkz_o34DPdJ10-126" edge="1">
          <mxGeometry relative="1" as="geometry" />
        </mxCell>
        <mxCell id="g78Ildckkz_o34DPdJ10-125" value="q8" style="ellipse;whiteSpace=wrap;html=1;fontFamily=Lucida Console;fontSize=16;fillColor=none;" parent="1" vertex="1">
          <mxGeometry x="1400" y="400" width="80" height="80" as="geometry" />
        </mxCell>
        <mxCell id="g78Ildckkz_o34DPdJ10-126" value="q9" style="ellipse;whiteSpace=wrap;html=1;fontFamily=Lucida Console;fontSize=16;fillColor=none;" parent="1" vertex="1">
          <mxGeometry x="1560" y="400" width="80" height="80" as="geometry" />
        </mxCell>
        <mxCell id="g78Ildckkz_o34DPdJ10-127" value="" style="ellipse;whiteSpace=wrap;html=1;fillColor=none;" parent="1" vertex="1">
          <mxGeometry x="1570" y="410" width="60" height="60" as="geometry" />
        </mxCell>
        <mxCell id="g78Ildckkz_o34DPdJ10-132" value="q10" style="ellipse;whiteSpace=wrap;html=1;fontFamily=Lucida Console;fontSize=16;fillColor=none;" parent="1" vertex="1">
          <mxGeometry x="840" y="680" width="80" height="80" as="geometry" />
        </mxCell>
        <mxCell id="g78Ildckkz_o34DPdJ10-144" value="" style="edgeStyle=orthogonalEdgeStyle;orthogonalLoop=1;jettySize=auto;html=1;exitX=0;exitY=1;exitDx=0;exitDy=0;curved=1;entryX=0.5;entryY=1;entryDx=0;entryDy=0;fontSize=16;labelPosition=right;verticalLabelPosition=middle;align=left;verticalAlign=middle;" parent="1" edge="1">
          <mxGeometry relative="1" as="geometry">
            <mxPoint x="800" y="482" as="targetPoint" />
            <mxPoint x="772" y="470" as="sourcePoint" />
            <Array as="points">
              <mxPoint x="740" y="470" />
              <mxPoint x="740" y="532" />
              <mxPoint x="800" y="532" />
            </Array>
          </mxGeometry>
        </mxCell>
        <mxCell id="g78Ildckkz_o34DPdJ10-148" value="" style="edgeStyle=orthogonalEdgeStyle;orthogonalLoop=1;jettySize=auto;html=1;exitX=1;exitY=1;exitDx=0;exitDy=0;curved=1;entryX=0.5;entryY=1;entryDx=0;entryDy=0;fontSize=16;labelPosition=left;verticalLabelPosition=middle;align=right;verticalAlign=middle;" parent="1" edge="1">
          <mxGeometry x="0.003" relative="1" as="geometry">
            <mxPoint x="1600" y="482" as="targetPoint" />
            <mxPoint x="1628" y="470" as="sourcePoint" />
            <Array as="points">
              <mxPoint x="1660" y="470" />
              <mxPoint x="1660" y="532" />
              <mxPoint x="1600" y="532" />
            </Array>
            <mxPoint as="offset" />
          </mxGeometry>
        </mxCell>
        <mxCell id="g78Ildckkz_o34DPdJ10-149" value="" style="endArrow=classic;html=1;entryX=0;entryY=0.5;entryDx=0;entryDy=0;exitX=0.5;exitY=1;exitDx=0;exitDy=0;curved=1;fontSize=16;labelPosition=right;verticalLabelPosition=top;align=left;verticalAlign=bottom;" parent="1" source="VPKis5m0lJXNzGzPn87w-1" target="g78Ildckkz_o34DPdJ10-132" edge="1">
          <mxGeometry width="50" height="50" relative="1" as="geometry">
            <mxPoint x="820" y="640" as="sourcePoint" />
            <mxPoint x="870" y="590" as="targetPoint" />
            <Array as="points">
              <mxPoint x="160" y="700" />
            </Array>
          </mxGeometry>
        </mxCell>
        <mxCell id="g78Ildckkz_o34DPdJ10-150" value="" style="endArrow=classic;html=1;exitX=0.5;exitY=1;exitDx=0;exitDy=0;entryX=0.045;entryY=0.288;entryDx=0;entryDy=0;curved=1;fontSize=16;labelPosition=right;verticalLabelPosition=top;align=left;verticalAlign=bottom;entryPerimeter=0;" parent="1" source="g78Ildckkz_o34DPdJ10-1" target="g78Ildckkz_o34DPdJ10-132" edge="1">
          <mxGeometry x="-0.0001" width="50" height="50" relative="1" as="geometry">
            <mxPoint x="970" y="650" as="sourcePoint" />
            <mxPoint x="790" y="760" as="targetPoint" />
            <Array as="points">
              <mxPoint x="320" y="670" />
            </Array>
            <mxPoint as="offset" />
          </mxGeometry>
        </mxCell>
        <mxCell id="g78Ildckkz_o34DPdJ10-151" value="" style="endArrow=classic;html=1;exitX=1;exitY=1;exitDx=0;exitDy=0;entryX=0.38;entryY=0.01;entryDx=0;entryDy=0;curved=1;entryPerimeter=0;" parent="1" source="g78Ildckkz_o34DPdJ10-23" target="g78Ildckkz_o34DPdJ10-132" edge="1">
          <mxGeometry width="50" height="50" relative="1" as="geometry">
            <mxPoint x="930" y="640" as="sourcePoint" />
            <mxPoint x="980" y="590" as="targetPoint" />
            <Array as="points">
              <mxPoint x="830" y="560" />
            </Array>
          </mxGeometry>
        </mxCell>
        <mxCell id="g78Ildckkz_o34DPdJ10-154" value="" style="endArrow=classic;html=1;exitX=0.5;exitY=1;exitDx=0;exitDy=0;entryX=0.182;entryY=0.102;entryDx=0;entryDy=0;curved=1;entryPerimeter=0;" parent="1" source="g78Ildckkz_o34DPdJ10-21" target="g78Ildckkz_o34DPdJ10-132" edge="1">
          <mxGeometry width="50" height="50" relative="1" as="geometry">
            <mxPoint x="930" y="640" as="sourcePoint" />
            <mxPoint x="980" y="590" as="targetPoint" />
            <Array as="points">
              <mxPoint x="640" y="600" />
            </Array>
          </mxGeometry>
        </mxCell>
        <mxCell id="g78Ildckkz_o34DPdJ10-157" value="" style="endArrow=classic;html=1;entryX=0.653;entryY=0.023;entryDx=0;entryDy=0;exitX=0;exitY=1;exitDx=0;exitDy=0;curved=1;entryPerimeter=0;" parent="1" source="g78Ildckkz_o34DPdJ10-114" target="g78Ildckkz_o34DPdJ10-132" edge="1">
          <mxGeometry width="50" height="50" relative="1" as="geometry">
            <mxPoint x="930" y="640" as="sourcePoint" />
            <mxPoint x="980" y="590" as="targetPoint" />
            <Array as="points">
              <mxPoint x="930" y="560" />
            </Array>
          </mxGeometry>
        </mxCell>
        <mxCell id="g78Ildckkz_o34DPdJ10-158" value="" style="endArrow=classic;html=1;exitX=0.5;exitY=1;exitDx=0;exitDy=0;curved=1;entryX=0.833;entryY=0.128;entryDx=0;entryDy=0;entryPerimeter=0;" parent="1" source="g78Ildckkz_o34DPdJ10-117" target="g78Ildckkz_o34DPdJ10-132" edge="1">
          <mxGeometry width="50" height="50" relative="1" as="geometry">
            <mxPoint x="930" y="640" as="sourcePoint" />
            <mxPoint x="900" y="690" as="targetPoint" />
            <Array as="points">
              <mxPoint x="1120" y="610" />
            </Array>
          </mxGeometry>
        </mxCell>
        <mxCell id="g78Ildckkz_o34DPdJ10-159" value="" style="endArrow=classic;html=1;exitX=0.5;exitY=1;exitDx=0;exitDy=0;entryX=0.943;entryY=0.265;entryDx=0;entryDy=0;curved=1;entryPerimeter=0;" parent="1" source="g78Ildckkz_o34DPdJ10-125" target="g78Ildckkz_o34DPdJ10-132" edge="1">
          <mxGeometry width="50" height="50" relative="1" as="geometry">
            <mxPoint x="930" y="640" as="sourcePoint" />
            <mxPoint x="980" y="590" as="targetPoint" />
            <Array as="points">
              <mxPoint x="1440" y="670" />
            </Array>
          </mxGeometry>
        </mxCell>
        <mxCell id="g78Ildckkz_o34DPdJ10-160" value="" style="endArrow=classic;html=1;exitX=0;exitY=1;exitDx=0;exitDy=0;entryX=1;entryY=0.5;entryDx=0;entryDy=0;curved=1;" parent="1" source="g78Ildckkz_o34DPdJ10-126" target="g78Ildckkz_o34DPdJ10-132" edge="1">
          <mxGeometry width="50" height="50" relative="1" as="geometry">
            <mxPoint x="930" y="640" as="sourcePoint" />
            <mxPoint x="980" y="880" as="targetPoint" />
            <Array as="points">
              <mxPoint x="1572" y="700" />
            </Array>
          </mxGeometry>
        </mxCell>
        <mxCell id="g78Ildckkz_o34DPdJ10-161" value="&lt;font style=&quot;font-size: 16px;&quot;&gt;+,-&lt;/font&gt;" style="text;html=1;strokeColor=none;fillColor=none;align=center;verticalAlign=middle;whiteSpace=wrap;rounded=0;" parent="1" vertex="1">
          <mxGeometry x="40" y="574" width="60" height="30" as="geometry" />
        </mxCell>
        <mxCell id="g78Ildckkz_o34DPdJ10-162" value="&lt;span style=&quot;font-size: 16px;&quot;&gt;0,e&lt;br&gt;&lt;/span&gt;" style="text;html=1;strokeColor=none;fillColor=none;align=center;verticalAlign=middle;whiteSpace=wrap;rounded=0;" parent="1" vertex="1">
          <mxGeometry x="220" y="574" width="60" height="30" as="geometry" />
        </mxCell>
        <mxCell id="g78Ildckkz_o34DPdJ10-164" value="&lt;span style=&quot;font-size: 16px;&quot;&gt;0,e,+,-&lt;/span&gt;" style="text;html=1;strokeColor=none;fillColor=none;align=center;verticalAlign=middle;whiteSpace=wrap;rounded=0;" parent="1" vertex="1">
          <mxGeometry x="580" y="640" width="60" height="30" as="geometry" />
        </mxCell>
        <mxCell id="g78Ildckkz_o34DPdJ10-170" value="&lt;span style=&quot;font-size: 16px;&quot;&gt;0..9&lt;/span&gt;" style="text;html=1;strokeColor=none;fillColor=none;align=center;verticalAlign=middle;whiteSpace=wrap;rounded=0;" parent="1" vertex="1">
          <mxGeometry x="1600" y="490" width="60" height="30" as="geometry" />
        </mxCell>
        <mxCell id="g78Ildckkz_o34DPdJ10-171" value="&lt;span style=&quot;font-size: 16px;&quot;&gt;0..9&lt;/span&gt;" style="text;html=1;strokeColor=none;fillColor=none;align=center;verticalAlign=middle;whiteSpace=wrap;rounded=0;" parent="1" vertex="1">
          <mxGeometry x="1280" y="490" width="60" height="30" as="geometry" />
        </mxCell>
        <mxCell id="g78Ildckkz_o34DPdJ10-172" value="&lt;span style=&quot;font-size: 16px;&quot;&gt;0..9&lt;/span&gt;" style="text;html=1;strokeColor=none;fillColor=none;align=center;verticalAlign=middle;whiteSpace=wrap;rounded=0;" parent="1" vertex="1">
          <mxGeometry x="740" y="490" width="60" height="30" as="geometry" />
        </mxCell>
        <mxCell id="g78Ildckkz_o34DPdJ10-173" value="&lt;span style=&quot;font-size: 16px;&quot;&gt;0..9&lt;/span&gt;" style="text;html=1;strokeColor=none;fillColor=none;align=center;verticalAlign=middle;whiteSpace=wrap;rounded=0;" parent="1" vertex="1">
          <mxGeometry x="420" y="490" width="60" height="30" as="geometry" />
        </mxCell>
        <mxCell id="g78Ildckkz_o34DPdJ10-174" value="&lt;span style=&quot;font-size: 16px;&quot;&gt;e,+,-,.&lt;/span&gt;" style="text;html=1;strokeColor=none;fillColor=none;align=center;verticalAlign=middle;whiteSpace=wrap;rounded=0;" parent="1" vertex="1">
          <mxGeometry x="690" y="560" width="60" height="30" as="geometry" />
        </mxCell>
        <mxCell id="g78Ildckkz_o34DPdJ10-175" value="&lt;font style=&quot;font-size: 16px;&quot;&gt;e,+,-&lt;/font&gt;" style="text;html=1;strokeColor=none;fillColor=none;align=center;verticalAlign=middle;whiteSpace=wrap;rounded=0;" parent="1" vertex="1">
          <mxGeometry x="1590" y="574" width="60" height="30" as="geometry" />
        </mxCell>
        <mxCell id="g78Ildckkz_o34DPdJ10-176" value="&lt;span style=&quot;font-size: 16px;&quot;&gt;e,+,-,.&lt;/span&gt;" style="text;html=1;strokeColor=none;fillColor=none;align=center;verticalAlign=middle;whiteSpace=wrap;rounded=0;" parent="1" vertex="1">
          <mxGeometry x="1440" y="574" width="60" height="30" as="geometry" />
        </mxCell>
        <mxCell id="g78Ildckkz_o34DPdJ10-177" value="&lt;span style=&quot;font-size: 16px;&quot;&gt;e,+,-,.&lt;/span&gt;" style="text;html=1;strokeColor=none;fillColor=none;align=center;verticalAlign=middle;whiteSpace=wrap;rounded=0;" parent="1" vertex="1">
          <mxGeometry x="1119" y="639" width="60" height="30" as="geometry" />
        </mxCell>
        <mxCell id="g78Ildckkz_o34DPdJ10-178" value="&lt;span style=&quot;font-size: 16px;&quot;&gt;0,e,+,-&lt;/span&gt;" style="text;html=1;strokeColor=none;fillColor=none;align=center;verticalAlign=middle;whiteSpace=wrap;rounded=0;" parent="1" vertex="1">
          <mxGeometry x="1012" y="560" width="60" height="30" as="geometry" />
        </mxCell>
        <mxCell id="g78Ildckkz_o34DPdJ10-179" value="&lt;span style=&quot;font-size: 16px;&quot;&gt;+,-,.&lt;/span&gt;" style="text;html=1;strokeColor=none;fillColor=none;align=center;verticalAlign=middle;whiteSpace=wrap;rounded=0;" parent="1" vertex="1">
          <mxGeometry x="824" y="490" width="60" height="30" as="geometry" />
        </mxCell>
        <mxCell id="g78Ildckkz_o34DPdJ10-180" value="&lt;span style=&quot;font-size: 16px;&quot;&gt;0,e&lt;/span&gt;" style="text;html=1;strokeColor=none;fillColor=none;align=center;verticalAlign=middle;whiteSpace=wrap;rounded=0;" parent="1" vertex="1">
          <mxGeometry x="925" y="490" width="60" height="30" as="geometry" />
        </mxCell>
        <mxCell id="vXCBeE7GJZ4MAMiTyPOw-1" value="" style="endArrow=classic;html=1;exitX=0.5;exitY=0;exitDx=0;exitDy=0;entryX=0.027;entryY=0.688;entryDx=0;entryDy=0;entryPerimeter=0;curved=1;" edge="1" parent="1" source="g78Ildckkz_o34DPdJ10-2" target="g78Ildckkz_o34DPdJ10-132">
          <mxGeometry width="50" height="50" relative="1" as="geometry">
            <mxPoint x="780" y="680" as="sourcePoint" />
            <mxPoint x="830" y="630" as="targetPoint" />
            <Array as="points">
              <mxPoint x="480" y="310" />
              <mxPoint y="310" />
              <mxPoint y="710" />
            </Array>
          </mxGeometry>
        </mxCell>
        <mxCell id="vXCBeE7GJZ4MAMiTyPOw-2" value="" style="endArrow=classic;html=1;exitX=0.5;exitY=0;exitDx=0;exitDy=0;entryX=0.982;entryY=0.677;entryDx=0;entryDy=0;entryPerimeter=0;curved=1;" edge="1" parent="1" source="g78Ildckkz_o34DPdJ10-118" target="g78Ildckkz_o34DPdJ10-132">
          <mxGeometry width="50" height="50" relative="1" as="geometry">
            <mxPoint x="780" y="680" as="sourcePoint" />
            <mxPoint x="940" y="750" as="targetPoint" />
            <Array as="points">
              <mxPoint x="1280" y="310" />
              <mxPoint x="1700" y="310" />
              <mxPoint x="1700" y="710" />
            </Array>
          </mxGeometry>
        </mxCell>
        <mxCell id="vXCBeE7GJZ4MAMiTyPOw-3" value="" style="edgeStyle=orthogonalEdgeStyle;orthogonalLoop=1;jettySize=auto;html=1;exitX=1;exitY=1;exitDx=0;exitDy=0;curved=1;entryX=0.5;entryY=1;entryDx=0;entryDy=0;fontSize=16;labelPosition=left;verticalLabelPosition=middle;align=right;verticalAlign=middle;" edge="1" parent="1">
          <mxGeometry relative="1" as="geometry">
            <mxPoint x="880" y="762" as="targetPoint" />
            <Array as="points">
              <mxPoint x="940" y="750" />
              <mxPoint x="940" y="812" />
              <mxPoint x="880" y="812" />
            </Array>
            <mxPoint x="908" y="750" as="sourcePoint" />
          </mxGeometry>
        </mxCell>
        <mxCell id="vXCBeE7GJZ4MAMiTyPOw-4" value="&lt;span style=&quot;font-size: 16px;&quot;&gt;0..9,e,+,-,.&lt;/span&gt;" style="text;html=1;strokeColor=none;fillColor=none;align=center;verticalAlign=middle;whiteSpace=wrap;rounded=0;" vertex="1" parent="1">
          <mxGeometry x="870" y="820" width="95" height="30" as="geometry" />
        </mxCell>
        <mxCell id="vXCBeE7GJZ4MAMiTyPOw-5" value="" style="rounded=0;whiteSpace=wrap;html=1;fillColor=none;strokeColor=#ffffff;" vertex="1" parent="1">
          <mxGeometry x="-60" y="220" width="1820" height="660" as="geometry" />
        </mxCell>
      </root>
    </mxGraphModel>
  </diagram>
</mxfile>
